<svg xmlns="http://www.w3.org/2000/svg" xmlns:xlink="http://www.w3.org/1999/xlink" width="500" zoomAndPan="magnify" viewBox="0 0 375 374.999991" height="500" preserveAspectRatio="xMidYMid meet" version="1.0"><defs><g/></defs><g fill="#ff6600" fill-opacity="1"><g transform="translate(164.690099, 282.310157)"><g><path d="M 63.671875 -91.359375 L 59.25 -74.75 L 97.734375 -74.75 L 93.578125 -91.359375 C 90.992188 -100.398438 88.5 -110 86.09375 -120.15625 C 83.695312 -130.3125 81.300781 -140.09375 78.90625 -149.5 L 77.796875 -149.5 C 75.578125 -139.90625 73.3125 -130.078125 71 -120.015625 C 68.695312 -109.953125 66.253906 -100.398438 63.671875 -91.359375 Z M -1.65625 0 L 54.8125 -180.515625 L 103.828125 -180.515625 L 160.296875 0 L 117.109375 0 L 106.03125 -42.90625 L 50.9375 -42.90625 L 39.875 0 Z M -1.65625 0 "/></g></g></g><g fill="#ff6600" fill-opacity="1"><g transform="translate(25.670577, 282.310157)"><g><path d="M 56.484375 0 L 56.484375 -146.1875 L 6.921875 -146.1875 L 6.921875 -180.515625 L 147.015625 -180.515625 L 147.015625 -146.1875 L 97.453125 -146.1875 L 97.453125 0 Z M 56.484375 0 "/></g></g></g></svg>